<svg viewBox="0 0 30 30" fill="none" xmlns="http://www.w3.org/2000/svg">
<path d="M7.91409 24C7.37921 24 6.92647 23.8147 6.55588 23.4441C6.18529 23.0735 6 22.6208 6 22.0859V7.91409C6 7.37921 6.18529 6.92647 6.55588 6.55588C6.92647 6.18529 7.37921 6 7.91409 6H22.0859C22.6208 6 23.0735 6.18529 23.4441 6.55588C23.8147 6.92647 24 7.37921 24 7.91409V22.0859C24 22.6208 23.8147 23.0735 23.4441 23.4441C23.0735 23.8147 22.6208 24 22.0859 24H7.91409ZM7.91409 22.4118H22.0859C22.1674 22.4118 22.2421 22.3778 22.3099 22.3099C22.3778 22.2421 22.4118 22.1674 22.4118 22.0859V7.91409C22.4118 7.83256 22.3778 7.75791 22.3099 7.69015C22.2421 7.62221 22.1674 7.58824 22.0859 7.58824H7.91409C7.83256 7.58824 7.75791 7.62221 7.69015 7.69015C7.62221 7.75791 7.58824 7.83256 7.58824 7.91409V22.0859C7.58824 22.1674 7.62221 22.2421 7.69015 22.3099C7.75791 22.3778 7.83256 22.4118 7.91409 22.4118Z" fill="#898989"/>
</svg>
