<svg width="28" height="28" viewBox="0 0 28 28" fill="none" xmlns="http://www.w3.org/2000/svg">
<path d="M6.91409 23C6.37921 23 5.92647 22.8147 5.55588 22.4441C5.18529 22.0735 5 21.6208 5 21.0859V6.91409C5 6.37921 5.18529 5.92647 5.55588 5.55588C5.92647 5.18529 6.37921 5 6.91409 5H21.0859C21.6208 5 22.0735 5.18529 22.4441 5.55588C22.8147 5.92647 23 6.37921 23 6.91409V21.0859C23 21.6208 22.8147 22.0735 22.4441 22.4441C22.0735 22.8147 21.6208 23 21.0859 23H6.91409ZM6.91409 21.4118H21.0859C21.1674 21.4118 21.2421 21.3778 21.3099 21.3099C21.3778 21.2421 21.4118 21.1674 21.4118 21.0859V6.91409C21.4118 6.83256 21.3778 6.75791 21.3099 6.69015C21.2421 6.62221 21.1674 6.58824 21.0859 6.58824H6.91409C6.83256 6.58824 6.75791 6.62221 6.69015 6.69015C6.62221 6.75791 6.58824 6.83256 6.58824 6.91409V21.0859C6.58824 21.1674 6.62221 21.2421 6.69015 21.3099C6.75791 21.3778 6.83256 21.4118 6.91409 21.4118Z" fill="#898989"/>
</svg>
