<svg width="28" height="28" viewBox="0 0 28 28" fill="none" xmlns="http://www.w3.org/2000/svg">
<rect x="6" y="6" width="14" height="14" fill="#F5F5F5"/>
<path d="M12.5176 18.0804L19.6361 10.962L18.5204 9.84624L12.5176 15.849L9.5 12.8313L8.38426 13.9471L12.5176 18.0804ZM6.91409 23C6.37921 23 5.92647 22.8147 5.55588 22.4441C5.18529 22.0735 5 21.6208 5 21.0859V6.91409C5 6.37921 5.18529 5.92647 5.55588 5.55588C5.92647 5.18529 6.37921 5 6.91409 5H21.0859C21.6208 5 22.0735 5.18529 22.4441 5.55588C22.8147 5.92647 23 6.37921 23 6.91409V21.0859C23 21.6208 22.8147 22.0735 22.4441 22.4441C22.0735 22.8147 21.6208 23 21.0859 23H6.91409Z" fill="#7380E9"/>
</svg>
