<svg width="42" height="42" viewBox="0 0 42 42" fill="none" xmlns="http://www.w3.org/2000/svg">
<path d="M15.9889 30.3004C15.1334 30.3004 14.4093 30.004 13.8165 29.4113C13.2238 28.8185 12.9274 28.0944 12.9274 27.2389V7.95868C12.9274 7.10316 13.2238 6.37903 13.8165 5.78628C14.4093 5.19354 15.1334 4.89717 15.9889 4.89717H30.1885C31.044 4.89717 31.7681 5.19354 32.3609 5.78628C32.9536 6.37903 33.25 7.10316 33.25 7.95868V27.2389C33.25 28.0944 32.9536 28.8185 32.3609 29.4113C31.7681 30.004 31.044 30.3004 30.1885 30.3004H15.9889ZM15.9889 27.7601H30.1885C30.3189 27.7601 30.4383 27.7057 30.5467 27.5971C30.6553 27.4887 30.7097 27.3693 30.7097 27.2389V7.95868C30.7097 7.82828 30.6553 7.70888 30.5467 7.6005C30.4383 7.49183 30.3189 7.43749 30.1885 7.43749H15.9889C15.8585 7.43749 15.7391 7.49183 15.6307 7.6005C15.5221 7.70888 15.4677 7.82828 15.4677 7.95868V27.2389C15.4677 27.3693 15.5221 27.4887 15.6307 27.5971C15.7391 27.7057 15.8585 27.7601 15.9889 27.7601ZM10.0615 36.2278C9.20599 36.2278 8.48185 35.9314 7.88911 35.3387C7.29637 34.746 7 34.0218 7 33.1663V11.3458H9.54032V33.1663C9.54032 33.2967 9.59466 33.4161 9.70333 33.5245C9.81171 33.6332 9.93111 33.6875 10.0615 33.6875H26.8014V36.2278H10.0615Z" fill="#D5D5D5"/>
</svg>
