<svg width="32" height="32" viewBox="0 0 32 32" fill="none" xmlns="http://www.w3.org/2000/svg">
<path d="M10.2307 17.5C9.81821 17.5 9.46513 17.3531 9.17146 17.0592C8.87763 16.7656 8.73071 16.4125 8.73071 16C8.73071 15.5875 8.87763 15.2344 9.17146 14.9408C9.46513 14.6469 9.81821 14.5 10.2307 14.5C10.6432 14.5 10.9964 14.6469 11.2902 14.9408C11.5839 15.2344 11.7307 15.5875 11.7307 16C11.7307 16.4125 11.5839 16.7656 11.2902 17.0592C10.9964 17.3531 10.6432 17.5 10.2307 17.5ZM16 17.5C15.5875 17.5 15.2344 17.3531 14.9407 17.0592C14.6469 16.7656 14.5 16.4125 14.5 16C14.5 15.5875 14.6469 15.2344 14.9407 14.9408C15.2344 14.6469 15.5875 14.5 16 14.5C16.4125 14.5 16.7655 14.6469 17.0592 14.9408C17.353 15.2344 17.5 15.5875 17.5 16C17.5 16.4125 17.353 16.7656 17.0592 17.0592C16.7655 17.3531 16.4125 17.5 16 17.5ZM21.7692 17.5C21.3567 17.5 21.0035 17.3531 20.7097 17.0592C20.416 16.7656 20.2692 16.4125 20.2692 16C20.2692 15.5875 20.416 15.2344 20.7097 14.9408C21.0035 14.6469 21.3567 14.5 21.7692 14.5C22.1817 14.5 22.5348 14.6469 22.8285 14.9408C23.1223 15.2344 23.2692 15.5875 23.2692 16C23.2692 16.4125 23.1223 16.7656 22.8285 17.0592C22.5348 17.3531 22.1817 17.5 21.7692 17.5Z" fill="#AFAFAF"/>
</svg>
