<svg  viewBox="0 0 34 34" fill="none" xmlns="http://www.w3.org/2000/svg">
<path d="M14.2983 28L13.8525 24.4728C13.539 24.3689 13.2174 24.2235 12.8879 24.0365C12.5585 23.8493 12.264 23.6489 12.0043 23.4353L8.70142 24.8158L6 20.1842L8.85683 18.0488C8.8299 17.8766 8.81078 17.7037 8.79946 17.53C8.78815 17.3563 8.78249 17.1833 8.78249 17.011C8.78249 16.8464 8.78815 16.6791 8.79946 16.5091C8.81078 16.339 8.8299 16.1531 8.85683 15.9512L6 13.8158L8.70142 9.2065L11.9929 10.576C12.2752 10.3548 12.5766 10.1526 12.897 9.96926C13.2173 9.78593 13.5322 9.63859 13.8414 9.52724L14.2983 6H19.7017L20.1475 9.53824C20.4987 9.66445 20.8164 9.81179 21.1007 9.98026C21.3852 10.1487 21.6723 10.3473 21.9621 10.576L25.2986 9.2065L28 13.8158L25.0981 15.9845C25.1401 16.1715 25.163 16.3464 25.1669 16.5091C25.1706 16.6715 25.1724 16.8352 25.1724 17C25.1724 17.1573 25.1686 17.3173 25.161 17.4799C25.1536 17.6424 25.1267 17.8284 25.0802 18.0378L27.9596 20.1842L25.2579 24.8158L21.9621 23.424C21.6723 23.6527 21.3766 23.8549 21.0749 24.0307C20.7733 24.2067 20.4641 24.3504 20.1475 24.4618L19.7017 28H14.2983ZM17.0135 20.4737C17.9875 20.4737 18.8164 20.1356 19.5001 19.4594C20.1837 18.7832 20.5256 17.9634 20.5256 17C20.5256 16.0366 20.1837 15.2168 19.5001 14.5406C18.8164 13.8644 17.9875 13.5263 17.0135 13.5263C16.0273 13.5263 15.1954 13.8644 14.5178 14.5406C13.8402 15.2168 13.5013 16.0366 13.5013 17C13.5013 17.9634 13.8402 18.7832 14.5178 19.4594C15.1954 20.1356 16.0273 20.4737 17.0135 20.4737Z" fill="#D4D4D4"/>
</svg>
