<svg width="24" height="24" viewBox="0 0 24 24" fill="none" xmlns="http://www.w3.org/2000/svg">
<path d="M11.2599 16.6875H12.7401V12.7401H16.6875V11.2599H12.7401V7.3125H11.2599V11.2599H7.3125V12.7401H11.2599V16.6875ZM12.0017 21.375C10.705 21.375 9.48618 21.1289 8.34523 20.6368C7.20428 20.1447 6.21184 19.4769 5.36793 18.6333C4.52401 17.7897 3.85584 16.7977 3.3634 15.6572C2.87113 14.5168 2.625 13.2983 2.625 12.0017C2.625 10.705 2.87105 9.48618 3.36316 8.34523C3.85526 7.20428 4.52311 6.21184 5.36669 5.36793C6.21028 4.52401 7.2023 3.85584 8.34276 3.3634C9.48322 2.87113 10.7017 2.625 11.9983 2.625C13.295 2.625 14.5138 2.87105 15.6548 3.36316C16.7957 3.85526 17.7882 4.52311 18.6321 5.36669C19.476 6.21028 20.1442 7.2023 20.6366 8.34276C21.1289 9.48322 21.375 10.7017 21.375 11.9983C21.375 13.295 21.1289 14.5138 20.6368 15.6548C20.1447 16.7957 19.4769 17.7882 18.6333 18.6321C17.7897 19.476 16.7977 20.1442 15.6572 20.6366C14.5168 21.1289 13.2983 21.375 12.0017 21.375ZM12 19.8947C14.2039 19.8947 16.0707 19.1299 17.6003 17.6003C19.1299 16.0707 19.8947 14.2039 19.8947 12C19.8947 9.79605 19.1299 7.92928 17.6003 6.39967C16.0707 4.87007 14.2039 4.10526 12 4.10526C9.79605 4.10526 7.92928 4.87007 6.39967 6.39967C4.87007 7.92928 4.10526 9.79605 4.10526 12C4.10526 14.2039 4.87007 16.0707 6.39967 17.6003C7.92928 19.1299 9.79605 19.8947 12 19.8947Z" fill="#F5F5F5"/>
</svg>
