<svg width="24 " height="22" viewBox="0 0 24 18" fill="none" xmlns="http://www.w3.org/2000/svg">
  <path
    d="M11.25 14.75H12.75V10.75H16.75V9.25H12.75V5.25H11.25V9.25H7.25V10.75H11.25V14.75ZM12.0018 19.5C10.6878 19.5 9.45267 19.2507 8.2965 18.752C7.14033 18.2533 6.13467 17.5766 5.2795 16.7218C4.42433 15.8669 3.74725 14.8617 3.24825 13.706C2.74942 12.5503 2.5 11.3156 2.5 10.0018C2.5 8.68775 2.74933 7.45267 3.248 6.2965C3.74667 5.14033 4.42342 4.13467 5.27825 3.2795C6.13308 2.42433 7.13833 1.74725 8.294 1.24825C9.44967 0.749416 10.6844 0.5 11.9982 0.5C13.3123 0.5 14.5473 0.749333 15.7035 1.248C16.8597 1.74667 17.8653 2.42342 18.7205 3.27825C19.5757 4.13308 20.2528 5.13833 20.7518 6.294C21.2506 7.44967 21.5 8.68442 21.5 9.99825C21.5 11.3123 21.2507 12.5473 20.752 13.7035C20.2533 14.8597 19.5766 15.8653 18.7218 16.7205C17.8669 17.5757 16.8617 18.2528 15.706 18.7518C14.5503 19.2506 13.3156 19.5 12.0018 19.5ZM12 18C14.2333 18 16.125 17.225 17.675 15.675C19.225 14.125 20 12.2333 20 10C20 7.76667 19.225 5.875 17.675 4.325C16.125 2.775 14.2333 2 12 2C9.76667 2 7.875 2.775 6.325 4.325C4.775 5.875 4 7.76667 4 10C4 12.2333 4.775 14.125 6.325 15.675C7.875 17.225 9.76667 18 12 18Z"
    fill="currentColor"
  />
  <path
    d="M11.998 1C13.247 1 14.4149 1.23651 15.5059 1.70703C16.6063 2.18171 17.5586 2.82359 18.3672 3.63184C19.0748 4.33914 19.6543 5.15667 20.1064 6.08691L20.293 6.49219C20.7635 7.58245 21 8.74945 21 9.99805C21 11.247 20.7635 12.4149 20.293 13.5059C19.8183 14.6063 19.1764 15.5586 18.3682 16.3672C17.6609 17.0748 16.8433 17.6543 15.9131 18.1064L15.5078 18.293C14.4175 18.7635 13.2506 19 12.002 19C10.753 19 9.58505 18.7635 8.49414 18.293C7.39368 17.8183 6.44138 17.1764 5.63281 16.3682C4.92524 15.6609 4.34571 14.8433 3.89355 13.9131L3.70703 13.5078C3.23645 12.4175 3.00003 11.2506 3 10.002C3 8.75303 3.23651 7.58505 3.70703 6.49414C4.18171 5.39368 4.82359 4.44138 5.63184 3.63281C6.33914 2.92524 7.15667 2.34571 8.08691 1.89355L8.49219 1.70703C9.58245 1.23645 10.7494 1.00003 11.998 1ZM12 1.5C9.63686 1.5 7.61741 2.32595 5.97168 3.97168C4.32595 5.61741 3.5 7.63686 3.5 10C3.5 12.3631 4.32595 14.3826 5.97168 16.0283C7.61741 17.6741 9.63686 18.5 12 18.5C14.3631 18.5 16.3826 17.6741 18.0283 16.0283C19.6741 14.3826 20.5 12.3631 20.5 10C20.5 7.63686 19.6741 5.61741 18.0283 3.97168C16.3826 2.32595 14.3631 1.5 12 1.5ZM12.25 5.75V9.75H16.25V10.25H12.25V14.25H11.75V10.25H7.75V9.75H11.75V5.75H12.25Z"
    stroke="currentColor"
  />
</svg>