<svg width="22" height="22" viewBox="0 0 22 22" fill="none" xmlns="http://www.w3.org/2000/svg">
<path d="M2.7331 19.6471H13.4706V13.4706H19.6471V2.7331C19.6471 2.62213 19.6114 2.53103 19.5402 2.45979C19.469 2.38856 19.3779 2.35294 19.2669 2.35294H2.7331C2.62213 2.35294 2.53103 2.38856 2.45979 2.45979C2.38856 2.53103 2.35294 2.62213 2.35294 2.7331V19.2669C2.35294 19.3779 2.38856 19.469 2.45979 19.5402C2.53103 19.6114 2.62213 19.6471 2.7331 19.6471ZM2.7331 21.5C2.1171 21.5 1.59087 21.2819 1.1544 20.8456C0.718132 20.4091 0.5 19.8829 0.5 19.2669V2.7331C0.5 2.1171 0.718132 1.59087 1.1544 1.1544C1.59087 0.718132 2.1171 0.5 2.7331 0.5H19.2669C19.8829 0.5 20.4091 0.718132 20.8456 1.1544C21.2819 1.59087 21.5 2.1171 21.5 2.7331V14.2664L14.2664 21.5H2.7331ZM5.36984 13.138V11.285H11V13.138H5.36984ZM5.36984 8.22059V6.36765H16.6302V8.22059H5.36984Z" fill="#1F1F1F"/>
</svg>
