<svg width="21" height="22" viewBox="0 0 21 22" fill="none" xmlns="http://www.w3.org/2000/svg">
<path d="M2.2331 19.6471H12.9706V13.4706H19.1471V2.7331C19.1471 2.62213 19.1114 2.53103 19.0402 2.45979C18.969 2.38856 18.8779 2.35294 18.7669 2.35294H2.2331C2.12213 2.35294 2.03103 2.38856 1.95979 2.45979C1.88856 2.53103 1.85294 2.62213 1.85294 2.7331V19.2669C1.85294 19.3779 1.88856 19.469 1.95979 19.5402C2.03103 19.6114 2.12213 19.6471 2.2331 19.6471ZM2.2331 21.5C1.6171 21.5 1.09087 21.2819 0.654397 20.8456C0.218132 20.4091 0 19.8829 0 19.2669V2.7331C0 2.1171 0.218132 1.59087 0.654397 1.1544C1.09087 0.718132 1.6171 0.5 2.2331 0.5H18.7669C19.3829 0.5 19.9091 0.718132 20.3456 1.1544C20.7819 1.59087 21 2.1171 21 2.7331V14.2664L13.7664 21.5H2.2331Z" fill="#AFAFAF"/>
</svg>
