<svg width="20" height="20" viewBox="0 0 20 20" fill="none" xmlns="http://www.w3.org/2000/svg">
<path d="M9.38322 13.9063H10.6168V10.6168H13.9063V9.38322H10.6168V6.09375H9.38322V9.38322H6.09375V10.6168H9.38322V13.9063ZM10.0014 17.8125C8.92085 17.8125 7.90515 17.6075 6.95436 17.1974C6.00356 16.7873 5.17653 16.2307 4.47327 15.5278C3.77001 14.8248 3.2132 13.9981 2.80284 13.0477C2.39261 12.0973 2.1875 11.0819 2.1875 10.0014C2.1875 8.92085 2.39254 7.90515 2.80263 6.95436C3.21272 6.00356 3.76926 5.17653 4.47225 4.47327C5.17523 3.77001 6.00192 3.2132 6.9523 2.80284C7.90269 2.39261 8.91811 2.1875 9.99856 2.1875C11.0792 2.1875 12.0948 2.39254 13.0456 2.80263C13.9964 3.21272 14.8235 3.76926 15.5267 4.47225C16.23 5.17523 16.7868 6.00192 17.1972 6.9523C17.6074 7.90269 17.8125 8.91811 17.8125 9.99856C17.8125 11.0792 17.6075 12.0948 17.1974 13.0456C16.7873 13.9964 16.2307 14.8235 15.5278 15.5267C14.8248 16.23 13.9981 16.7868 13.0477 17.1972C12.0973 17.6074 11.0819 17.8125 10.0014 17.8125ZM10 16.5789C11.8366 16.5789 13.3923 15.9416 14.6669 14.6669C15.9416 13.3923 16.5789 11.8366 16.5789 10C16.5789 8.16338 15.9416 6.60773 14.6669 5.33306C13.3923 4.05839 11.8366 3.42105 10 3.42105C8.16338 3.42105 6.60773 4.05839 5.33306 5.33306C4.05839 6.60773 3.42105 8.16338 3.42105 10C3.42105 11.8366 4.05839 13.3923 5.33306 14.6669C6.60773 15.9416 8.16338 16.5789 10 16.5789Z" fill="#E8E8E8"/>
</svg>
