<svg width="25" height="30" viewBox="0 0 25 30" fill="none" xmlns="http://www.w3.org/2000/svg">
<rect x="19.355" y="3.22729" width="5.64508" height="24.1932" rx="2.41932" fill="#394187"/>
<path d="M0 7.42637C0 5.91446 1.05009 4.60541 2.52599 4.27743L17.8483 0.872461C19.8629 0.424788 21.7739 1.95773 21.7739 4.0214V25.9604C21.7739 27.9772 19.9439 29.4995 17.9607 29.1322L2.63838 26.2948C1.10937 26.0116 0 24.6779 0 23.1229V7.42637Z" fill="#7380E9"/>
<path d="M17.2002 8.39795H4.7002C4.14791 8.39795 3.7002 8.84566 3.7002 9.39795V21.3979C3.7002 21.9502 4.14791 22.3979 4.7002 22.3979H13.426C13.6971 22.3979 13.9566 22.2879 14.145 22.093L17.9192 18.1887C18.0994 18.0022 18.2002 17.753 18.2002 17.4936V9.39795C18.2002 8.84566 17.7525 8.39795 17.2002 8.39795Z" fill="white"/>
<path d="M14 22.3979L18.5 17.8979H15.5C14.3 17.8979 14 18.8979 14 19.3979V22.3979Z" fill="#778FF9"/>
<line x1="6.1" y1="11.7979" x2="15.9" y2="11.7979" stroke="#7380E9" stroke-width="1.2" stroke-linecap="round"/>
<line x1="6.1" y1="14.7979" x2="13.9" y2="14.7979" stroke="#7380E9" stroke-width="1.2" stroke-linecap="round"/>
<line x1="6.1" y1="17.7979" x2="11.1" y2="17.7979" stroke="#7380E9" stroke-width="1.2" stroke-linecap="round"/>
</svg>
