<svg width="32" height="32" viewBox="0 0 32 32" fill="none" xmlns="http://www.w3.org/2000/svg">
<path d="M18.5045 24.7779L24.778 18.5044H19.6384C19.3172 18.5044 19.0479 18.613 18.8304 18.8303C18.6131 19.0478 18.5045 19.3171 18.5045 19.6384V24.7779ZM7.59827 26.66C6.97447 26.66 6.44049 26.4379 5.99633 25.9938C5.55216 25.5496 5.33008 25.0156 5.33008 24.3918V7.5982C5.33008 6.9744 5.55216 6.44042 5.99633 5.99625C6.44049 5.55208 6.97447 5.33 7.59827 5.33H24.3919C25.0157 5.33 25.5497 5.55208 25.9938 5.99625C26.438 6.44042 26.6601 6.9744 26.6601 7.5982V18.3742C26.6601 18.6802 26.6013 18.9718 26.4838 19.2491C26.3665 19.5264 26.2048 19.7679 25.9988 19.9737L19.9738 25.9988C19.768 26.2048 19.5264 26.3664 19.2492 26.4837C18.9719 26.6012 18.6803 26.66 18.3743 26.66H7.59827ZM11.2175 18.1666H16.054C16.3207 18.1666 16.5442 18.0763 16.7247 17.8959C16.9049 17.7154 16.9951 17.4919 16.9951 17.2252C16.9951 16.9584 16.9049 16.735 16.7247 16.5549C16.5442 16.3747 16.3207 16.2845 16.054 16.2845H11.2175C10.9508 16.2845 10.7274 16.3748 10.5471 16.5552C10.3667 16.7357 10.2764 16.9592 10.2764 17.2259C10.2764 17.4927 10.3667 17.7161 10.5471 17.8962C10.7274 18.0765 10.9508 18.1666 11.2175 18.1666ZM11.2175 13.1719H20.7727C21.0393 13.1719 21.2628 13.0817 21.443 12.9012C21.6235 12.7207 21.7137 12.4972 21.7137 12.2306C21.7137 11.9637 21.6235 11.7403 21.443 11.5602C21.2628 11.38 21.0393 11.2899 20.7727 11.2899H11.2175C10.9508 11.2899 10.7274 11.3801 10.5471 11.5606C10.3667 11.741 10.2764 11.9646 10.2764 12.2312C10.2764 12.498 10.3667 12.7215 10.5471 12.9015C10.7274 13.0818 10.9508 13.1719 11.2175 13.1719Z" fill="#A7A7A7"/>
</svg>
