<svg width="32" height="32" viewBox="0 0 32 32" fill="none" xmlns="http://www.w3.org/2000/svg">
<path d="M7.7331 24.6471H18.4706V18.4706H24.6471V7.7331C24.6471 7.62213 24.6114 7.53103 24.5402 7.45979C24.469 7.38856 24.3779 7.35294 24.2669 7.35294H7.7331C7.62213 7.35294 7.53103 7.38856 7.45979 7.45979C7.38856 7.53103 7.35294 7.62213 7.35294 7.7331V24.2669C7.35294 24.3779 7.38856 24.469 7.45979 24.5402C7.53103 24.6114 7.62213 24.6471 7.7331 24.6471ZM7.7331 26.5C7.1171 26.5 6.59087 26.2819 6.1544 25.8456C5.71813 25.4091 5.5 24.8829 5.5 24.2669V7.7331C5.5 7.1171 5.71813 6.59087 6.1544 6.1544C6.59087 5.71813 7.1171 5.5 7.7331 5.5H24.2669C24.8829 5.5 25.4091 5.71813 25.8456 6.1544C26.2819 6.59087 26.5 7.1171 26.5 7.7331V19.2664L19.2664 26.5H7.7331ZM10.3698 18.138V16.285H16V18.138H10.3698ZM10.3698 13.2206V11.3676H21.6302V13.2206H10.3698Z" fill="#1F1F1F"/>
</svg>
