<svg width="28" height="28" viewBox="0 0 28 28" fill="none" xmlns="http://www.w3.org/2000/svg">
<rect width="28" height="28" rx="4.66667" fill="#454545"/>
<path d="M14.5725 16.2474L18.3329 12.4352C18.3846 12.3826 18.4254 12.3238 18.4553 12.2589C18.4851 12.1942 18.5 12.1247 18.5 12.0505C18.5 11.9023 18.4506 11.7734 18.3517 11.6639C18.2529 11.5546 18.1226 11.5 17.9609 11.5H10.0391C9.87739 11.5 9.74712 11.5552 9.64827 11.6657C9.54942 11.776 9.5 11.9048 9.5 12.052C9.5 12.0889 9.55579 12.2166 9.66736 12.4352L13.4275 16.2474C13.5138 16.3352 13.6031 16.3992 13.6954 16.4395C13.7877 16.4798 13.8892 16.5 14 16.5C14.1108 16.5 14.2123 16.4798 14.3046 16.4395C14.3969 16.3992 14.4862 16.3352 14.5725 16.2474Z" fill="white"/>
</svg>
