<svg width="28" height="28" viewBox="0 0 28 28" fill="none" xmlns="http://www.w3.org/2000/svg">
<rect width="28" height="28" rx="4.66667" fill="#454545"/>
<path d="M14.5725 11.7526L18.3329 15.5648C18.3846 15.6174 18.4254 15.6762 18.4553 15.7411C18.4851 15.8058 18.5 15.8753 18.5 15.9495C18.5 16.0977 18.4506 16.2266 18.3517 16.3361C18.2529 16.4454 18.1226 16.5 17.9609 16.5H10.0391C9.87739 16.5 9.74712 16.4448 9.64827 16.3343C9.54942 16.224 9.5 16.0952 9.5 15.948C9.5 15.9111 9.55579 15.7834 9.66736 15.5648L13.4275 11.7526C13.5138 11.6648 13.6031 11.6008 13.6954 11.5605C13.7877 11.5202 13.8892 11.5 14 11.5C14.1108 11.5 14.2123 11.5202 14.3046 11.5605C14.3969 11.6008 14.4862 11.6648 14.5725 11.7526Z" fill="#7380E9"/>
</svg>
