<svg width="32" height="32" viewBox="0 0 32 32" fill="none" xmlns="http://www.w3.org/2000/svg">
<path d="M7.4875 25.3333H18.6668V18.6666H25.3335V7.48731C25.3335 7.24798 25.2566 7.05131 25.1028 6.89731C24.9488 6.74353 24.7522 6.66665 24.5128 6.66665H7.4875C7.24816 6.66665 7.0515 6.74353 6.8975 6.89731C6.74372 7.05131 6.66683 7.24798 6.66683 7.48731V24.5126C6.66683 24.752 6.74372 24.9486 6.8975 25.1026C7.0515 25.2564 7.24816 25.3333 7.4875 25.3333ZM7.4875 26.6666C6.89083 26.6666 6.38261 26.4569 5.96283 26.0373C5.54327 25.6175 5.3335 25.1093 5.3335 24.5126V7.48731C5.3335 6.89065 5.54327 6.38242 5.96283 5.96265C6.38261 5.54309 6.89083 5.33331 7.4875 5.33331H24.5128C25.1095 5.33331 25.6177 5.54309 26.0375 5.96265C26.4571 6.38242 26.6668 6.89065 26.6668 7.48731V19.0513L19.0515 26.6666H7.4875ZM10.5128 17.9486V16.6153H16.0002V17.9486H10.5128ZM10.5128 12.6666V11.3333H21.4875V12.6666H10.5128Z" fill="#AFAFAF"/>
</svg>
