<svg width="32" height="32" viewBox="0 0 32 32" fill="none" xmlns="http://www.w3.org/2000/svg">
<path d="M14.9999 22.3333H16.9999V17H22.3333V15H16.9999V9.66667H14.9999V15H9.66659V17H14.9999V22.3333ZM16.0023 28.6667C14.2503 28.6667 12.6035 28.3342 11.0619 27.6693C9.52036 27.0044 8.17947 26.1021 7.03925 24.9623C5.89903 23.8226 4.99625 22.4822 4.33092 20.9413C3.66581 19.4004 3.33325 17.7541 3.33325 16.0023C3.33325 14.2503 3.6657 12.6036 4.33059 11.062C4.99547 9.52045 5.89781 8.17956 7.03759 7.03934C8.17736 5.89911 9.5177 4.99634 11.0586 4.331C12.5995 3.66589 14.2458 3.33334 15.9976 3.33334C17.7496 3.33334 19.3964 3.66578 20.9379 4.33067C22.4795 4.99556 23.8204 5.89789 24.9606 7.03767C26.1008 8.17745 27.0036 9.51778 27.6689 11.0587C28.334 12.5996 28.6666 14.2459 28.6666 15.9977C28.6666 17.7497 28.3341 19.3964 27.6693 20.938C27.0044 22.4796 26.102 23.8204 24.9623 24.9607C23.8225 26.1009 22.4821 27.0037 20.9413 27.669C19.4004 28.3341 17.754 28.6667 16.0023 28.6667ZM15.9999 26.6667C18.9777 26.6667 21.4999 25.6333 23.5666 23.5667C25.6333 21.5 26.6666 18.9778 26.6666 16C26.6666 13.0222 25.6333 10.5 23.5666 8.43334C21.4999 6.36667 18.9777 5.33334 15.9999 5.33334C13.0221 5.33334 10.4999 6.36667 8.43325 8.43334C6.36659 10.5 5.33325 13.0222 5.33325 16C5.33325 18.9778 6.36659 21.5 8.43325 23.5667C10.4999 25.6333 13.0221 26.6667 15.9999 26.6667Z" fill="#F5F5F5"/>
</svg>
